<?xml version="1.0" encoding="UTF-8"?><svg xmlns="http://www.w3.org/2000/svg" viewBox="0 0 30 30" width="30" height="30"><defs><style>.cls-1{fill:#92d1d6;}</style></defs><g id="Calque_1-2"><g id="Groupe_509"><g id="Groupe_505"><path id="Rectangle_324" class="cls-1" d="M15,0h0c8.28,0,15,6.72,15,15h0c0,8.28-6.72,15-15,15h0C6.72,30,0,23.28,0,15H0C0,6.72,6.72,0,15,0Z"/><g id="Groupe_501"><path id="Tracé_325" d="M23.5,10.82c-.13,.3-.32,.57-.57,.78-1.4,1.4-2.8,2.8-4.19,4.2-.1,.08-.13,.21-.07,.32,.2,.45,.47,.85,.82,1.2,.1,.12,.21,.22,.32,.34,.17,.16,.22,.4,.13,.61-.08,.22-.29,.37-.52,.37-.39,.03-.77,.07-1.17,.1-.08,.4-.15,.78-.23,1.17-.02,.11-.04,.23-.07,.34-.08,.3-.38,.48-.68,.4-.08-.02-.15-.06-.22-.11-.63-.55-1.13-1.23-1.46-1.99-.15-.34-.16-.73-.03-1.09,.03-.1,.03-.21-.02-.3-.11-.23-.24-.45-.38-.66-.46-.61-1-1.16-1.61-1.62-.08-.06-.17-.12-.26-.18-.54-.35-.58-.34-1.02,.1l-3.66,3.66s-.08,.09-.13,.14c1.21,.71,2.22,1.72,2.93,2.93,.05-.05,.09-.09,.14-.13,.83-.84,1.66-1.67,2.49-2.51,.21-.23,.56-.26,.8-.05,.09,.08,.15,.18,.18,.29,.05,.21-.02,.44-.19,.58-.95,.95-1.9,1.89-2.84,2.84-.2,.2-.4,.38-.59,.59-.3,.34-.77,.47-1.19,.32-.46-.14-.89-.36-1.27-.67-.78-.58-1.45-1.29-1.99-2.1-.15-.23-.27-.48-.36-.74-.21-.49-.08-1.06,.33-1.41,.98-.96,1.94-1.94,2.91-2.91,1.33-1.33,2.67-2.66,3.99-4,.31-.34,.8-.47,1.24-.32,.53,.17,1.02,.44,1.43,.82,.8,.62,1.47,1.39,1.98,2.26,.01,.02,.02,.03,.04,.04,.04-.03,.07-.06,.11-.1,1.21-1.21,2.42-2.42,3.63-3.63,.1-.07,.13-.2,.07-.31-.09-.2-.19-.39-.3-.57-.5-.71-1.12-1.33-1.84-1.83-.19-.12-.38-.22-.58-.31-.1-.05-.22-.03-.29,.07-.98,.98-1.95,1.96-2.93,2.94-.13,.15-.32,.23-.51,.21-.31-.03-.54-.31-.5-.63,.01-.13,.08-.26,.17-.35,.37-.37,.74-.74,1.12-1.11,.6-.59,1.2-1.18,1.79-1.78,.2-.24,.47-.42,.76-.53h.46c.23,.09,.46,.18,.69,.27,.83,.42,1.55,1.01,2.14,1.73,.47,.53,.82,1.15,1.03,1.82v.5Zm-10.01,2.71c1.24,.7,2.26,1.73,2.96,2.97,.38-.38,.74-.73,1.09-1.1,.04-.05,.05-.12,.03-.18-.09-.22-.2-.44-.34-.64-.5-.71-1.12-1.32-1.82-1.82-.2-.12-.4-.23-.62-.32-.08-.04-.18-.02-.23,.06-.22,.23-.45,.46-.68,.68-.12,.12-.25,.23-.39,.35m-5.87,5.98c.07,.16,.12,.29,.19,.41,.37,.62,.85,1.16,1.41,1.62,.33,.26,.68,.51,1.04,.73,.07,.04,.15,.06,.23,.08-.58-1.26-1.6-2.27-2.87-2.85m10.1-2.69c-.37,.37-.73,.73-1.09,1.09-.02,.02-.03,.05-.03,.09,.06,.33,.21,.64,.44,.89,.05-.26,.1-.49,.15-.72,.04-.28,.27-.49,.55-.5,.16-.02,.31-.04,.47-.06l-.5-.78"/></g></g></g></g></svg>