<?xml version="1.0" encoding="UTF-8"?><svg xmlns="http://www.w3.org/2000/svg" viewBox="0 0 30 30" width="30" height="30"><defs><style>.cls-1{fill:#ffe8be;}</style></defs><g id="Calque_1-2"><g id="Groupe_506"><path id="Rectangle_323" class="cls-1" d="M15,0h0c8.28,0,15,6.72,15,15h0c0,8.28-6.72,15-15,15h0C6.72,30,0,23.28,0,15H0C0,6.72,6.72,0,15,0Z"/><g id="Groupe_500"><path id="Tracé_318" d="M14.89,21.35c0,.27,.21,.5,.49,.5,0,0,0,0,.01,0h1.44c.28,0,.5-.22,.5-.5s-.22-.5-.5-.5h-1.44c-.27,0-.5,.21-.5,.49,0,0,0,0,0,.01"/><path id="Tracé_319" d="M12.01,12.17c0,.27,.21,.5,.49,.5,0,0,0,0,.01,0h7.21c.28,0,.5-.22,.5-.5s-.22-.5-.5-.5h-7.21c-.27,0-.5,.21-.5,.49,0,0,0,0,0,.01"/><path id="Tracé_320" d="M13.04,14.11c0,.27,.21,.5,.49,.5,0,0,0,0,.01,0h5.12c.28,0,.5-.22,.5-.5s-.22-.5-.5-.5h-5.12c-.27,0-.49,.23-.5,.5"/><path id="Tracé_321" d="M7.99,7.65l-.03,14.27v.03c0,.33,.13,.65,.34,.91,.5,.62,1.26,.98,2.06,.97h11.4c.27,0,.5-.21,.5-.49,0,0,0,0,0-.01V9.02c0-.27-.21-.5-.49-.5,0,0,0,0-.01,0h-.06l-1.5-1.5c.19-.19,.19-.5,0-.69-.09-.09-.21-.15-.34-.16H9.42c-.37,0-.74,.14-1,.41-.28,.26-.44,.62-.44,1v.06Zm1-.25c.08-.15,.24-.24,.41-.25h9.56l1.34,1.34H10.39c-.51,0-.99-.23-1.31-.62-.09-.14-.13-.31-.09-.47m12.34,15.46H10.42c-.51,0-.99-.23-1.31-.63-.06-.09-.09-.2-.09-.31V9.11c.28,.16,.59,.28,.91,.34v11.3c0,.28,.22,.5,.5,.5s.5-.22,.5-.5V9.49h10.37l.03,13.37Z"/></g></g></g></svg>