<?xml version="1.0" encoding="UTF-8"?><svg xmlns="http://www.w3.org/2000/svg" viewBox="0 0 30 30" width="30" height="30" ><defs><style>.cls-1{fill:#dab7c1;}</style></defs><g id="Calque_1-2"><g id="Groupe_504"><path id="Rectangle_315" class="cls-1" d="M15,0h0c8.28,0,15,6.72,15,15h0c0,8.28-6.72,15-15,15h0C6.72,30,0,23.28,0,15H0C0,6.72,6.72,0,15,0Z"/><g id="Groupe_503"><path id="Tracé_322" d="M19.41,18.31c-.22-.58-.87-.87-1.45-.66h-.01l-.04,.02c-.05,.02-.1,.05-.15,.08-.04,.03-.09,.05-.14,.07-.62,.19-1.28-.15-1.48-.77-.26-.59,0-1.28,.57-1.55l.06-.02,.05-.02c.58-.22,.88-.88,.65-1.46-.05-.13-.13-.25-.22-.36-1.27-1.57-3.29-2.33-5.28-1.98l-1.21-3.18,.22-.08c.29-.11,.44-.44,.33-.73s-.44-.44-.73-.33l-.22,.08-.14-.37,.22-.08c.3-.09,.47-.41,.37-.71s-.41-.47-.71-.37c-.02,0-.04,.01-.06,.02l-.22,.08-.25-.64c-.13-.29-.46-.41-.75-.29-.26,.12-.4,.41-.31,.69l.24,.64-.22,.09c-.29,.11-.44,.44-.33,.73,.11,.29,.44,.44,.73,.33l.23-.09,.14,.37-.22,.08c-.3,.09-.47,.41-.37,.71,.09,.3,.41,.47,.71,.37,.02,0,.04-.01,.06-.02l.22-.08,1.21,3.17c-1.72,1.06-2.72,2.97-2.62,4.99,0,.63,.49,1.14,1.12,1.15,.14,0,.28-.02,.42-.07l.05-.02,.05-.02c.62-.19,1.27,.16,1.47,.77,.26,.59,0,1.29-.59,1.56-.05,.02-.11,.03-.16,.04-.06,.01-.12,.03-.18,.05-.58,.22-.88,.88-.66,1.46,.03,.09,.08,.18,.14,.26,1.69,2.36,4.27,3.39,6.42,2.57s3.38-3.28,3.09-6.14c0-.12-.03-.23-.07-.34m-3.42,5.41c-1.72,.66-3.75-.29-5.1-2.17,.12-.02,.23-.06,.35-.1,1.17-.49,1.73-1.84,1.24-3.02-.42-1.21-1.73-1.84-2.94-1.43-.03,.01-.06,.03-.1,.04-.08-1.55,.63-3.04,1.9-3.94l1.61,4.21c.13,.29,.46,.41,.75,.29,.26-.12,.4-.41,.31-.69l-1.6-4.22c1.54-.17,3.07,.46,4.03,1.67-.03,.01-.07,.02-.1,.03-1.18,.49-1.73,1.84-1.24,3.02,.42,1.21,1.73,1.85,2.94,1.43,.11-.04,.22-.1,.32-.16,.24,2.3-.64,4.36-2.36,5.01"/><path id="Tracé_323" d="M15.64,19.41l-2.28,.87c-.29,.13-.41,.46-.29,.75,.12,.26,.41,.4,.69,.31l2.28-.87c.3-.09,.47-.41,.37-.71-.09-.3-.41-.47-.71-.37-.02,0-.04,.01-.06,.02"/><path id="Tracé_324" d="M22.14,17.09l-4.92-10.41c-.14-.28-.49-.39-.76-.24-.26,.14-.38,.45-.26,.72l4.91,10.42c.12,.29,.45,.42,.74,.3,.29-.12,.42-.45,.3-.74,0-.01-.01-.03-.02-.04"/></g></g></g></svg>