<?xml version="1.0" encoding="UTF-8"?><svg id="Calque_2" xmlns="http://www.w3.org/2000/svg" viewBox="0 0 30 30"><defs><style>.cls-1{fill:#BEBEBE;}</style></defs><g id="Calque_1-2"><g><path id="Rectangle_324" class="cls-1" d="M15,0h0c8.28,0,15,6.72,15,15h0c0,8.28-6.72,15-15,15h0C6.72,30,0,23.28,0,15H0C0,6.72,6.72,0,15,0Z"/><g><path d="M23.54,20.11c-.19-.01-.39,0-.59,0h-.1v-5.28c.6-.29,.81-.67,.81-1.41v-.5c.77-.29,1.26-.86,1.43-1.64,.04-.19,.05-.4,.05-.6,0-.11,0-.23,.02-.34,.07-.64-.32-.94-.62-1.11-2.76-1.56-5.53-3.12-8.27-4.71-.84-.48-1.64-.49-2.43-.02-.67,.39-1.34,.76-2.02,1.14l-6.54,3.69c-.31,.18-.46,.44-.45,.79,.01,.13,.01,.26,.01,.39,0,.11-.01,.22,0,.33,.02,.95,.63,1.79,1.53,2.1v.64c0,.59,.26,.98,.82,1.25v5.28h-.68c-.97,.01-1.67,.72-1.67,1.68v.85c0,1.11,.68,1.79,1.78,1.79H23.56c.83-.03,1.48-.63,1.56-1.42,.05-.49,.05-.98,0-1.47-.07-.8-.74-1.4-1.58-1.43Zm-17.33,2.54v-.82c0-.27,.08-.34,.35-.34H23.37c.35,0,.41,.05,.41,.4v.82c-.01,.26-.09,.34-.35,.35H6.61c-.34,0-.4-.06-.4-.41ZM14.64,5.63c.13-.08,.25-.12,.37-.12,.13,0,.27,.04,.42,.13,2.58,1.48,5.16,2.94,7.75,4.4l.6,.35v.39c-.02,.53-.38,.89-.9,.9H7.22c-.36,0-.6-.09-.78-.3-.16-.18-.21-.4-.24-.74-.01-.2,.01-.27,.25-.4,2.07-1.15,4.15-2.33,6.22-3.5l1.97-1.11Zm4.48,8.32c-.3,0-.4-.1-.4-.4v-.86h3.92c0,.34,.02,.68-.01,1.02,0,.18-.17,.24-.34,.24h-3.17Zm2.71,.64v5.88h-2.28v-5.88h2.28Zm-9.14-.29c.14,.12,.32,.21,.52,.33v3.57c0,.07-.01,.15,.01,.22,.04,.17,.16,.25,.33,.24,.17-.01,.26-.11,.28-.27,.01-.07,.01-.13,.01-.2v-3.6h2.3v5.88h-4.99v-.21c0-1.83,.01-3.66,0-5.49,0-.14,.03-.2,.17-.26,.4-.15,.6-.47,.61-.89,0-.31,0-.61,0-.92h.47v.89c-.01,.28,.07,.53,.28,.71Zm3.21-.35h-2.44c-.34,0-.43-.09-.43-.43v-.82h3.92c0,.32,.01,.64,0,.95,0,.19-.12,.29-.32,.3-.24,0-.49,0-.73,0Zm.9,.63s.09-.04,.14-.05c.39-.14,.63-.48,.64-.89,.01-.3,.01-.6,.01-.9,0-.01,.01-.02,.02-.05h.48v.69c0,.72,.14,.94,.8,1.21v5.88h-2.09v-5.89Zm-9.42-1.89h3.92c0,.34,.01,.67-.01,1-.01,.21-.19,.26-.38,.26h-3.17c-.25,0-.36-.11-.36-.36,0-.29,0-.59,0-.9Zm3.13,1.91v5.88h-2.29v-5.88h2.29Z"/><path d="M14.83,11.03c1.24,0,2.12-1.2,1.76-2.39-.37-1.23-1.9-1.71-2.9-.91-.17,.14-.2,.29-.1,.44,.11,.17,.29,.18,.49,.04,.51-.35,1.12-.33,1.56,.06,.41,.36,.52,.97,.28,1.46-.25,.49-.79,.75-1.33,.65-.54-.1-.93-.56-.98-1.16-.02-.25-.13-.36-.33-.35-.2,0-.31,.15-.3,.38,.04,.99,.87,1.78,1.85,1.77Z"/></g></g></g></svg>