<?xml version="1.0" encoding="UTF-8"?><svg id="Calque_2" xmlns="http://www.w3.org/2000/svg" viewBox="0 0 30 30"><defs><style>.cls-1{fill:#ebebeb;}.cls-2{fill:#b1b1b1;}</style></defs><g id="Calque_1-2"><path id="Rectangle_324" class="cls-1" d="m15,0h0c8.28,0,15,6.72,15,15h0c0,8.28-6.72,15-15,15h0C6.72,30,0,23.28,0,15h0C0,6.72,6.72,0,15,0Z"/><path class="cls-2" d="m25.1,13.86l-1.84-1.66s0,0,0,0l-7.72-7c-.24-.22-.61-.22-.86,0l-.94.84-6.77,5.99s-.02.02-.03.04l-2.03,1.8c-.27.24-.29.64-.06.91.13.14.31.22.48.22.15,0,.3-.05.43-.16l1-.88v6.93c0,1.48,1.2,2.68,2.68,2.68h11.38c.72,0,1.39-.28,1.89-.79.5-.51.78-1.18.78-1.89v-6.73l.76.69c.12.11.28.17.43.17.18,0,.35-.07.48-.21.24-.26.22-.67-.05-.91Zm-8.19,8.4h-3.6v-4.91h3.6v4.91Zm5.27-1.39c0,.37-.14.72-.4.98-.26.26-.61.41-.98.41h-2.59v-5.55c0-.36-.29-.65-.65-.65h-4.89c-.36,0-.65.29-.65.65v5.55h-2.59c-.77,0-1.39-.62-1.39-1.39v-8.07l6.59-5.83h0s.48-.43.48-.43l7.08,6.42v7.9Z"/></g></svg>