<?xml version="1.0" encoding="UTF-8"?><svg id="Calque_2" xmlns="http://www.w3.org/2000/svg" viewBox="0 0 30 30"><defs><style>.cls-1{fill:#ebebeb;}.cls-2{fill:#b1b1b1;}</style></defs><g id="Calque_1-2"><path id="Rectangle_324" class="cls-1" d="m15,0h0c8.28,0,15,6.72,15,15h0c0,8.28-6.72,15-15,15h0C6.72,30,0,23.28,0,15h0C0,6.72,6.72,0,15,0Z"/><path class="cls-2" d="m20.3,10.1c.3,0,.6.02.9.07.47.07.92.22,1.33.45.41.24.78.53,1.1.87.14.14.3.26.47.36.16.08.31.18.45.29.28.32.41.74.35,1.16v3c.02.23.02.47,0,.71-.06.23-.16.44-.3.62-.22.35-.52.65-.87.86-.21.13-.43.22-.67.29-.23.12-.41.33-.49.58-.15.44-.45.55-.82.55-.05,0-.1,0-.15,0-.05,0-.1,0-.16,0-.07,0-.14,0-.2,0-.35,0-.69-.04-.79-.49-.09-.42-.31-.55-.63-.55-.04,0-.08,0-.12,0h-9.29c-.38,0-.69,0-.78.52-.08.47-.44.52-.81.52-.08,0-.16,0-.24,0-.09,0-.17,0-.26,0-.35,0-.68-.05-.78-.54-.08-.37-.3-.52-.65-.64-1.13-.31-1.89-1.38-1.79-2.56v-2.47c0-1.9.93-2.82,2.83-2.82h8.8c.25,0,.49-.04.73-.1.23-.07.45-.16.67-.25.7-.28,1.44-.42,2.18-.42m0-1.26h0c-.91,0-1.8.17-2.65.51-.02,0-.03.01-.05.02-.16.07-.32.13-.49.19-.14.03-.27.05-.41.05H7.92c-2.6,0-4.08,1.48-4.08,4.07v2.43c-.11,1.69.94,3.23,2.54,3.76.17.52.65,1.28,1.94,1.28.05,0,.1,0,.15,0h.11s.1,0,.1,0h.14c1.14,0,1.65-.55,1.88-1.04h8.68c.24.5.75,1.04,1.87,1.04h.12s.09,0,.09,0h0s.05,0,.07,0c.08,0,.16,0,.23,0,.93,0,1.64-.47,1.96-1.28.23-.09.45-.19.66-.32.5-.3.93-.72,1.25-1.22.23-.31.4-.66.49-1.04.02-.06.03-.13.03-.19.02-.29.03-.58,0-.86v-2.87c.07-.75-.17-1.5-.67-2.06-.04-.05-.09-.09-.14-.13-.19-.16-.4-.3-.62-.42-.07-.05-.14-.1-.2-.16-.4-.42-.86-.77-1.36-1.06-.01,0-.02-.01-.03-.02-.54-.3-1.13-.49-1.74-.58-.35-.06-.72-.08-1.09-.08h0Z"/><path class="cls-2" d="m20.16,13.29c.66.01,1.2.56,1.2,1.22v.02s0,.02,0,.02c.03.65-.48,1.21-1.13,1.23h-.06s-.02,0-.02,0h0c-.69,0-1.25-.55-1.27-1.24.03-.7.59-1.25,1.29-1.26m0-1.26c-1.39,0-2.52,1.12-2.55,2.5.01,1.39,1.14,2.5,2.53,2.5,0,0,0,0,.01,0,0,0,.02,0,.02,0,.03,0,.07,0,.1,0,1.35-.06,2.39-1.19,2.34-2.54,0-1.35-1.1-2.45-2.45-2.47h0Z"/><path class="cls-2" d="m7.96,16.92c-.35,0-.63-.28-.63-.63v-3.35c0-.35.28-.63.63-.63s.63.28.63.63v3.35c0,.35-.28.63-.63.63Z"/><path class="cls-2" d="m10.06,16.92c-.35,0-.63-.28-.63-.63v-3.35c0-.35.28-.63.63-.63s.63.28.63.63v3.35c0,.35-.28.63-.63.63Z"/><path class="cls-2" d="m12.15,16.92c-.35,0-.63-.28-.63-.63v-3.35c0-.35.28-.63.63-.63s.63.28.63.63v3.35c0,.35-.28.63-.63.63Z"/></g></svg>